<?xml version="1.0" encoding="UTF-8" standalone="no"?>
<svg
   xmlns:dc="http://purl.org/dc/elements/1.1/"
   xmlns:cc="http://creativecommons.org/ns#"
   xmlns:rdf="http://www.w3.org/1999/02/22-rdf-syntax-ns#"
   xmlns:svg="http://www.w3.org/2000/svg"
   xmlns="http://www.w3.org/2000/svg"
   xmlns:sodipodi="http://sodipodi.sourceforge.net/DTD/sodipodi-0.dtd"
   xmlns:inkscape="http://www.inkscape.org/namespaces/inkscape"
   viewBox="0 0 22 22"
   version="1.1"
   id="svg74"
   sodipodi:docname="callstart.svg"
   inkscape:version="1.0.1 (c497b03c, 2020-09-10)">
  <metadata
     id="metadata80">
    <rdf:RDF>
      <cc:Work
         rdf:about="">
        <dc:format>image/svg+xml</dc:format>
        <dc:type
           rdf:resource="http://purl.org/dc/dcmitype/StillImage" />
      </cc:Work>
    </rdf:RDF>
  </metadata>
  <defs
     id="defs78" />
  <sodipodi:namedview
     pagecolor="#ffffff"
     bordercolor="#666666"
     borderopacity="1"
     objecttolerance="10"
     gridtolerance="10"
     guidetolerance="10"
     inkscape:pageopacity="0"
     inkscape:pageshadow="2"
     inkscape:window-width="1714"
     inkscape:window-height="1232"
     id="namedview76"
     showgrid="false"
     inkscape:zoom="45.818182"
     inkscape:cx="11"
     inkscape:cy="11"
     inkscape:window-x="0"
     inkscape:window-y="23"
     inkscape:window-maximized="0"
     inkscape:current-layer="svg74" />
  <path
     d="m 16.325692,15.313918 -1.627404,-1.946805 c -0.324262,-0.386308 -0.91462,-0.428167 -1.31589,-0.09266 l -0.9807,0.819627 C 12.347636,14.05766 12.291686,14.019631 12.232882,13.979379 11.692504,13.613568 10.953006,13.1123 10.207539,12.219559 9.4597075,11.325038 9.0971997,10.507089 8.8320532,9.9098292 8.8040946,9.8465712 8.777347,9.7856009 8.750715,9.7276233 L 9.4088527,9.178305 9.7324968,8.9074438 C 10.134348,8.5714167 10.197208,7.9830888 9.8738758,7.5957932 L 8.2465076,5.6486081 C 7.9231271,5.2618436 7.3324862,5.2197303 6.9306179,5.555947 l -0.5488841,0.4614989 0.01255,0.014888 C 6.2061433,6.23271 6.0428151,6.4686476 5.9138651,6.7272351 5.7942582,6.9736947 5.7122332,7.2116593 5.6628883,7.4531941 c -0.4107576,1.935018 0.3233836,3.8025729 2.5323685,6.4452729 3.0537892,3.652722 5.7785232,3.640786 5.8964462,3.639088 0.25661,-0.0076 0.505459,-0.04656 0.761261,-0.120522 0.274819,-0.08006 0.535882,-0.198744 0.766298,-0.348044 l 0.01007,0.01077 0.554867,-0.454006 c 0.401086,-0.336018 0.464371,-0.924385 0.141251,-1.31235 m 5.666165,-4.310938 A 10.977851,10.977851 0 0 1 11.013515,21.980069 10.977851,10.977851 0 0 1 0.03591343,11.001969 10.977851,10.977851 0 0 1 11.014013,0.02436691 10.977851,10.977851 0 0 1 21.991615,11.002466"
     fill="#28a745"
     id="path72"
     style="stroke-width:0.0380859" />
</svg>
