<?xml version="1.0" encoding="UTF-8" standalone="no"?>
<svg
   xmlns:dc="http://purl.org/dc/elements/1.1/"
   xmlns:cc="http://creativecommons.org/ns#"
   xmlns:rdf="http://www.w3.org/1999/02/22-rdf-syntax-ns#"
   xmlns:svg="http://www.w3.org/2000/svg"
   xmlns="http://www.w3.org/2000/svg"
   xmlns:sodipodi="http://sodipodi.sourceforge.net/DTD/sodipodi-0.dtd"
   xmlns:inkscape="http://www.inkscape.org/namespaces/inkscape"
   viewBox="0 0 22 22"
   version="1.1"
   id="svg128"
   sodipodi:docname="callstop.svg"
   inkscape:version="1.0.1 (c497b03c, 2020-09-10)">
  <metadata
     id="metadata134">
    <rdf:RDF>
      <cc:Work
         rdf:about="">
        <dc:format>image/svg+xml</dc:format>
        <dc:type
           rdf:resource="http://purl.org/dc/dcmitype/StillImage" />
      </cc:Work>
    </rdf:RDF>
  </metadata>
  <defs
     id="defs132" />
  <sodipodi:namedview
     pagecolor="#ffffff"
     bordercolor="#666666"
     borderopacity="1"
     objecttolerance="10"
     gridtolerance="10"
     guidetolerance="10"
     inkscape:pageopacity="0"
     inkscape:pageshadow="2"
     inkscape:window-width="2560"
     inkscape:window-height="1354"
     id="namedview130"
     showgrid="false"
     inkscape:zoom="45.818182"
     inkscape:cx="11"
     inkscape:cy="11"
     inkscape:window-x="0"
     inkscape:window-y="23"
     inkscape:window-maximized="1"
     inkscape:current-layer="svg128" />
  <path
     d="M 11.021825,0.03174603 A 10.990079,10.990079 0 0 0 0.03174603,11.021825 10.990079,10.990079 0 0 0 11.021825,22.011905 10.990079,10.990079 0 0 0 22.011905,11.021825 10.990079,10.990079 0 0 0 11.021825,0.03174603 m -0.08106,8.05984947 c 4.766947,-0.010985 6.512995,2.0853685 6.587178,2.1760365 0.159356,0.201942 0.289864,0.416248 0.403886,0.660778 0.109899,0.262388 0.192326,0.539887 0.221175,0.811892 h 0.01375 l 0.01101,0.723972 c 0,0.519281 -0.409381,0.94652 -0.914924,0.947894 l -2.541457,0.0054 c -0.50417,0 -0.910802,-0.423118 -0.910802,-0.953389 l -0.01375,-1.273476 c -0.05769,-0.01786 -0.125012,-0.03159 -0.1937,-0.05907 -0.629182,-0.175841 -1.489156,-0.418997 -2.654104,-0.416248 -1.1635744,0.0027 -2.0249225,0.251397 -2.647235,0.429986 -0.072807,0.02747 -0.1373765,0.04121 -0.1991957,0.05632 l 0.00275,0.858599 v 0.417623 c 0.00138,0.530271 -0.4093804,0.957511 -0.9149242,0.958884 l -2.5387082,0.0054 c -0.504168,0.0015 -0.9190435,-0.423048 -0.9204174,-0.950572 l 0.00275,-0.715729 h 0.019232 c 0.032961,-0.273281 0.1071443,-0.55078 0.2225402,-0.815915 0.1126483,-0.250025 0.2459029,-0.467079 0.394269,-0.659406 1.225386,-1.5619386 3.1225484,-2.2007369 6.5706863,-2.2089795"
     fill="#af001d"
     fill-rule="evenodd"
     id="path126"
     style="stroke-width:1.37377" />
</svg>
